# AST/ASF file generated using VICON BodyLanguage
# -----------------------------------------------
:version 1.10
:name VICON
:units
  mass 1.0
  length 0.45
  angle deg
:documentation
   .ast/.asf automatically generated from VICON data using
   VICON BodyBuilder and BodyLanguage model FoxedUp or BRILLIANT.MOD
:root
   order TX TY TZ RX RY RZ
   axis XYZ
   position 0 0 0  
   orientation 0 0 0 
:bonedata
  begin
     id 1 
     name lhipjoint
     direction 0.603808 -0.713975 0.35448 
     length 2.2025 
     axis 0 0 0  XYZ
  end
  begin
     id 2 
     name lfemur
     direction 0.34202 -0.939693 0  
     length 6.55877  
     axis 0 0 20  XYZ
    dof rx ry rz
    limits (-160.0 20.0)
           (-70.0 70.0)
           (-60.0 70.0)
  end
  begin
     id 3 
     name ltibia
     direction 0.34202 -0.939693 0   
     length 6.80302   
     axis 0 0 20   XYZ
    dof rx
    limits (-10.0 170.0)
  end
  begin
     id 4 
     name lfoot
     direction 0.091848 -0.25235 0.963267   
     length 2.03446   
     axis -90 7.62852e-016 20   XYZ
    dof rx rz
    limits (-45.0 90.0)
           (-70.0 20.0)
  end
  begin
     id 5 
     name ltoes
     direction 1.53608e-011 -4.21925e-011 1   
     length 1.02033   
     axis -90 7.62852e-016 20   XYZ
    dof rx
    limits (-90.0 20.0)
  end
  begin
     id 6 
     name rhipjoint
     direction -0.587285 -0.724947 0.359928   
     length 2.16916  
     axis 0 0 0  XYZ 
  end
  begin
     id 7 
     name rfemur
     direction -0.34202 -0.939693 0   
     length 6.43173   
     axis 0 0 -20   XYZ
    dof rx ry rz
    limits (-160.0 20.0)
           (-70.0 70.0)
           (-70.0 60.0)
  end
  begin
     id 8 
     name rtibia
     direction -0.34202 -0.939693 0   
     length 6.70662   
     axis 0 0 -20   XYZ
    dof rx
    limits (-10.0 170.0)
 end
 begin
     id 9 
     name rfoot
     direction -0.11854 -0.325686 0.938018   
     length 2.0773  
     axis -90 -7.62852e-016 -20   XYZ
    dof rx rz
    limits (-45.0 90.0)
           (-20.0 70.0)
  end
  begin
     id 10 
     name rtoes
     direction -1.53547e-011 -4.21838e-011 1   
     length 1.03267   
     axis -90 -7.62852e-016 -20   XYZ
    dof rx
    limits (-90.0 20.0)
  end
  begin
     id 11 
     name lowerback
     direction -0.0286554 0.999539 0.0100613   
     length 2.08751   
     axis 0 0 0   XYZ
    dof rx ry rz
    limits (-20.0 45.0)
           (-30.0 30.0)
           (-30.0 30.0)
  end
  begin
     id 12 
     name upperback
     direction 0.0227093 0.999705 -0.00860929   
     length 2.08517   
     axis 0 0 0   XYZ
    dof rx ry rz
    limits (-20.0 45.0)
           (-30.0 30.0)
           (-30.0 30.0)
  end
  begin
     id 13 
     name thorax
     direction 0.0351627 0.999285 -0.013892   
     length 2.08412   
     axis 0 0 0   XYZ
    dof rx ry rz
    limits (-20.0 45.0)
           (-30.0 30.0)
           (-30.0 30.0)
  end
  begin
     id 14 
     name lowerneck
     direction -0.0696283 0.997344 0.0213922   
     length 1.44164   
     axis 0 0 0   XYZ
    dof rx ry rz
    limits (-20.0 45.0)
           (-30.0 30.0)
           (-30.0 30.0)
  end
  begin
     id 15 
     name upperneck
     direction 0.0531 0.990412 -0.127531   
     length 1.45022   
     axis 0 0 0   XYZ
    dof rx ry rz
    limits (-20.0 45.0)
           (-30.0 30.0)
           (-30.0 30.0)
  end
  begin
     id 16
     name head
     direction 0.0188154 0.998548 -0.0504727  
     length 1.45845  
     axis 0 0 0   XYZ
    dof rx ry rz
    limits (-20.0 45.0)
           (-30.0 30.0)
           (-30.0 30.0)
  end
  begin
     id 17 
     name lclavicle
     direction 0.961559 0.260051 0.088188  
     length 2.86057  
     axis 0 0 0   XYZ
    dof ry rz
    limits (-20.0 10.0)
           (0.0 20.0)
  end
  begin
     id 18 
     name lhumerus
     direction 1 -4.48959e-011 2.88185e-027   
     length 4.36901   
     axis 180 -30 -90   XYZ
    dof rx ry rz
    limits (-60.0 90.0)
           (-90.0 90.0)
           (-90.0 90.0)
  end
  begin
     id 19
     name lradius
     direction 1 -4.48965e-011 -3.92618e-028   
     length 3.21737   
     axis 180 -30 -90   XYZ
    dof rx
    limits (-10.0 170.0)
  end
  begin
     id 20
     name lwrist
     direction 1 -4.49037e-011 2.57246e-027   
     length 1.60869   
     axis -1.61769e-015 90 90   XYZ
    dof ry
    limits (-180.0 0.0)
 end
  begin
     id 21 
     name lhand
     direction 1 -4.48807e-011 5.12958e-027   
     length 0.564313   
     axis -3.27988e-015 90 90   XYZ
    dof rx rz
    limits (-90.0 90.0)
           (-45.0 45.0)
  end
  begin
     id 22 
     name lfingers
     direction 1 -4.48879e-011 1.02687e-026   
     length 0.454963   
     axis -6.5598e-015 90 90   XYZ
    dof rx
    limits (0.0 90.0)
  end
  begin
     id 23
     name lthumb
     direction 0.707107 -6.3475e-011 0.707107   
     length 0.653239   
     axis -90 45 2.19363e-014   XYZ
    dof rx rz
    limits (-45.0 45.0)
           (-45.0 45.0)
  end
  begin
     id 24 
     name rclavicle
     direction -0.954677 0.253915 0.155304   
     length 3.11497  
     axis 0 0 0   XYZ 
    dof ry rz
    limits (-10.0 20.0)
           (-20.0 0.0)
  end
  begin
     id 25 
     name rhumerus
     direction -1 -4.48958e-011 -8.20169e-028  
     length 4.34118   
     axis 180 30 90   XYZ
    dof rx ry rz
    limits (-90.0 60.0)
           (-90.0 90.0)
           (-90.0 90.0)
  end
  begin
     id 26 
     name rradius
     direction -1 -4.48978e-011 1.5676e-027   
     length 3.09531   
     axis 180 30 90   XYZ
    dof rx
    limits (-10.0 170.0)
  end
  begin
     id 27 
     name rwrist
     direction -1 -4.49001e-011 2.57123e-027   
     length 1.54765   
     axis -1.61769e-015 -90 -90   XYZ
    dof ry
    limits (-180.0 0.0)
  end
  begin
     id 28
     name rhand
     direction -1 -4.48847e-011 5.13225e-027   
     length 0.597446   
     axis -3.27988e-015 -90 -90   XYZ
    dof rx rz
    limits (-90.0 90.0)
           (-45.0 45.0)
  end
  begin
     id 29
     name rfingers
     direction -1 -4.49094e-011 1.02974e-026   
     length 0.481677   
     axis -6.5598e-015 -90 -90   XYZ
    dof rx
    limits (0.0 90.0)
  end
  begin
     id 30
     name rthumb
     direction -0.707107 -6.34859e-011 0.707107   
     length 0.691594   
     axis -90 -45 -2.19363e-014   XYZ
    dof rx rz
    limits (-45.0 45.0)
           (-45.0 45.0)
  end
:hierarchy
  begin
    root lhipjoint rhipjoint lowerback
    lhipjoint lfemur
    lfemur ltibia
    ltibia lfoot
    lfoot ltoes
    rhipjoint rfemur
    rfemur rtibia
    rtibia rfoot
    rfoot rtoes
    lowerback upperback
    upperback thorax
    thorax lowerneck lclavicle rclavicle
    lowerneck upperneck
    upperneck head
    lclavicle lhumerus
    lhumerus lradius
    lradius lwrist
    lwrist lhand lthumb
    lhand lfingers
    rclavicle rhumerus
    rhumerus rradius
    rradius rwrist
    rwrist rhand rthumb
    rhand rfingers
  end

#!OML:ASF I:\Acrobat_Osman\acrobat\cartwheel_test 2\Patient 1\Session 1\acrobat.ASF
:FULLY-SPECIFIED
:DEGREES
621
root 12.4305 13.9067 -17.2879 29.2025 -5.52998 -366.209
lowerback 7.83195 3.28024 2.67497
upperback 3.73083 4.56435 4.48462
thorax -0.678687 2.25739 2.75113
lowerneck -5.99746 -5.57432 -8.65545
upperneck 11.873 -6.86718 2.60424
head 4.95003 -3.57577 1.7738
rclavicle 2.06736e-014 7.23576e-014
rhumerus -17.659 -21.3768 351.854
rradius 37.5345
rwrist -373.615
rhand -33.7158 26.2173
rfingers 7.12502
rthumb -6.90527 -3.65006
lclavicle 2.06736e-014 7.23576e-014
lhumerus -31.4868 23.9669 -5.75915
lradius 42.1202
lwrist 51.3588
lhand -26.4696 57.8998
lfingers 7.12502
lthumb 0.092218 87.8795
rfemur -21.9676 -5.36726 -4.32841
rtibia 54.0417
rfoot -5.53606 -7.42012
rtoes -18.5328
lfemur -44.916 4.2852 9.30227
ltibia 56.5305
lfoot -29.8508 15.4863
ltoes -52.5999
622
root 12.0357 14.0859 -17.172 30.7475 -0.0909969 -365.37
lowerback 9.48384 3.22699 2.19741
upperback 4.11345 4.52097 4.40557
thorax -1.22061 2.22909 2.85627
lowerneck -6.16459 -6.26912 -9.26438
upperneck 10.7191 -7.88822 4.15687
head 4.76442 -3.99608 2.28051
rclavicle -1.07344e-013 -4.85035e-014
rhumerus -15.1545 -22.4163 349.818
rradius 37.8028
rwrist -373.468
rhand -33.4041 26.5788
rfingers 7.12502
rthumb -6.60435 -3.29821
lclavicle -1.07344e-013 -4.85035e-014
lhumerus -32.8964 25.0446 -6.38245
lradius 41.327
lwrist 51.663
lhand -26.6642 58.9939
lfingers 7.12502
lthumb -0.095799 88.9736
rfemur -22.2006 -4.24206 -3.61494
rtibia 49.8376
rfoot -8.84565 -9.07654
rtoes -16.882
lfemur -46.1898 1.07501 12.1943
ltibia 51.0955
lfoot -25.2105 16.1451
ltoes -52.9868
623
root 11.614 14.3547 -17.0197 32.79 5.61962 -364.13
lowerback 11.1656 2.93565 2.0517
upperback 4.4184 4.18768 4.32611
thorax -1.81574 2.06054 2.81431
lowerneck -6.42193 -6.96702 -10.0369
upperneck 9.74496 -8.84767 5.49959
head 4.66722 -4.41146 2.74254
rclavicle 7.31528e-014 9.54166e-015
rhumerus -12.4408 -23.2336 347.946
rradius 38.1887
rwrist -374.003
rhand -33.0197 26.3348
rfingers 7.12502
rthumb -6.23325 -3.55354
lclavicle 7.31528e-014 9.54166e-015
lhumerus -34.2964 25.58 -6.72781
lradius 41.0953
lwrist 52.3271
lhand -27.006 59.8712
lfingers 7.12502
lthumb -0.42592 89.8505
rfemur -22.3866 -2.43855 -3.31405
rtibia 44.9754
rfoot -12.485 -11.6108
rtoes -16.8153
lfemur -48.7183 -0.396513 13.5677
ltibia 46.4115
lfoot -18.2631 17.5074
ltoes -54.7903
624
root 11.1801 14.606 -16.8553 35.3293 11.3755 -362.542
lowerback 12.7749 2.64275 2.46517
upperback 4.65592 3.91139 4.11355
thorax -2.38918 1.92479 2.3303
lowerneck -6.62828 -7.73327 -10.2998
upperneck 8.32987 -9.8992 6.5466
head 4.41523 -4.87601 3.02987
rclavicle -2.22639e-014 1.59028e-014
rhumerus -10.5381 -23.7376 346.751
rradius 38.8758
rwrist -374.654
rhand -32.711 25.6553
rfingers 7.12502
rthumb -5.93519 -4.24154
lclavicle -2.22639e-014 1.59028e-014
lhumerus -34.6385 26.1763 -6.59869
lradius 41.0294
lwrist 52.8194
lhand -27.1983 60.4157
lfingers 7.12502
lthumb -0.611618 269.605
rfemur -23.0815 0.351086 -3.82655
rtibia 40.4838
rfoot -15.3037 -14.6619
rtoes -25.9569
lfemur -51.6224 -3.28618 15.8978
ltibia 41.987
lfoot -12.1065 19.0957
ltoes -52.5151
625
root 10.7475 14.8477 -16.659 38.397 16.7592 -360.805
lowerback 14.0922 2.47056 3.33481
upperback 4.74257 3.85492 3.79133
thorax -2.92746 1.89755 1.46036
lowerneck -6.73048 -8.53973 -10.0795
upperneck 6.84172 -11.0152 7.28165
head 4.10091 -5.38634 3.14633
rclavicle -9.54166e-015 -3.18055e-015
rhumerus -9.315 -24.5102 346.032
rradius 39.4764
rwrist -374.637
rhand -32.5849 25.6817
rfingers 7.12502
rthumb -5.81341 -4.2185
lclavicle -9.54166e-015 -3.18055e-015
lhumerus -34.0085 26.8924 -6.19745
lradius 41.0396
lwrist 52.9837
lhand -27.3536 60.6595
lfingers 7.12502
lthumb -0.761585 269.362
rfemur -24.5375 3.74292 -5.11087
rtibia 36.4975
rfoot -14.8117 -18.3654
rtoes -37.3837
lfemur -55.2596 -7.55474 19.3497
ltibia 39.0546
lfoot -6.09732 24.7544
ltoes -47.8151
626
root 10.3204 14.9763 -16.4576 41.9231 21.7589 -359.046
lowerback 14.8723 1.69866 3.62942
upperback 4.77413 2.98396 4.48198
thorax -3.33164 1.46975 2.13919
lowerneck -6.91241 -8.67863 -12.3766
upperneck 5.61489 -10.9877 8.20224
head 3.9348 -5.38758 3.78805
rclavicle -2.70347e-014 1.11319e-014
rhumerus -4.3984 -21.9517 346.241
rradius 38.9929
rwrist -377.595
rhand -32.8648 25.6466
rfingers 7.12502
rthumb -6.08366 -4.24603
lclavicle -2.70347e-014 1.11319e-014
lhumerus -37.1143 26.41 -6.87179
lradius 42.0678
lwrist 53.9009
lhand -27.6296 60.7835
lfingers 7.12502
lthumb -1.02816 269.239
rfemur -27.174 6.17763 -6.76276
rtibia 34.1212
rfoot -16.4965 -21.3671
rtoes -37.1066
lfemur -58.3846 -8.4416 20.13
ltibia 37.175
lfoot -5.60783 27.695
ltoes -44.3059
627
root 9.89848 15.029 -16.2443 45.4505 26.5337 -357.292
lowerback 15.5712 0.973706 4.16098
upperback 4.60689 2.24388 5.30761
thorax -3.8864 1.10711 2.83198
lowerneck -6.28685 -8.70257 -14.5897
upperneck 4.26108 -10.906 9.08269
head 3.58573 -5.36581 4.4465
rclavicle 6.83819e-014 1.59028e-014
rhumerus -0.562589 -22.0691 345.576
rradius 40.1844
rwrist -377.947
rhand -32.8397 25.047
rfingers 7.12502
rthumb -6.05945 -4.84638
lclavicle 6.83819e-014 1.59028e-014
lhumerus -39.9499 24.9165 -7.63975
lradius 43.3662
lwrist 55.3558
lhand -27.857 61.0238
lfingers 7.12502
lthumb -1.24783 269
rfemur -30.693 7.235 -8.01217
rtibia 33.6579
rfoot -23.6115 -22.8533
rtoes -27.6057
lfemur -60.4483 -5.8945 17.0437
ltibia 36.5772
lfoot -5.78642 29.1892
ltoes -43.5467
628
root 9.47669 15.0004 -16.026 48.6691 31.1135 -355.552
lowerback 16.3391 0.917825 5.08476
upperback 4.47171 2.43558 5.74331
thorax -4.4272 1.19641 2.72877
lowerneck -5.15367 -9.08143 -14.2818
upperneck 2.73474 -11.5569 9.35231
head 3.01717 -5.69425 4.50275
rclavicle 1.43125e-014 5.08889e-014
rhumerus 1.04581 -21.4149 346.109
rradius 41.0116
rwrist -380.158
rhand -33.3476 24.5572
rfingers 7.12502
rthumb -6.54976 -5.32147
lclavicle 1.43125e-014 5.08889e-014
lhumerus -39.5206 24.7636 -7.846
lradius 43.9559
lwrist 55.6878
lhand -27.7927 60.865
lfingers 7.12502
lthumb -1.18575 269.159
rfemur -35.0495 6.853 -8.48609
rtibia 35.3364
rfoot -25.4685 -19.0765
rtoes -22.5283
lfemur -61.071 -1.96382 11.7075
ltibia 36.7884
lfoot -5.86597 28.005
ltoes -45.6759
629
root 9.04053 14.8961 -15.7779 51.1543 35.4944 -354.022
lowerback 17.4922 0.891008 5.83328
upperback 4.54715 2.69904 6.35879
thorax -4.96496 1.32158 2.89963
lowerneck -4.43569 -9.36724 -14.0971
upperneck 1.61423 -12.0329 9.84525
head 2.64277 -5.93213 4.64187
rclavicle 1.27222e-014 -1.03368e-014
rhumerus 3.17041 -22.3797 345.246
rradius 41.7254
rwrist -381.792
rhand -32.7802 24.7793
rfingers 7.12502
rthumb -6.00199 -5.11566
lclavicle 1.27222e-014 -1.03368e-014
lhumerus -39.4294 23.5553 -8.50364
lradius 44.9168
lwrist 56.7778
lhand -28.1858 60.729
lfingers 7.12502
lthumb -1.56539 269.297
rfemur -39.7808 5.82743 -7.7133
rtibia 38.8844
rfoot -25.6266 -13.7483
rtoes -20.5677
lfemur -60.5763 1.18589 6.4521
ltibia 38.044
lfoot -3.95169 26.3696
ltoes -45.8516
630
root 8.58506 14.703 -15.4712 52.4347 39.3695 -353.042
lowerback 19.1875 1.19572 5.73698
upperback 4.8712 3.32815 7.2655
thorax -5.59151 1.63431 3.77308
lowerneck -3.86815 -9.67429 -14.1368
upperneck 0.727834 -12.5104 10.515
head 2.39247 -6.17276 4.85852
rclavicle -2.22639e-014 9.78021e-014
rhumerus 5.71897 -23.5345 343.179
rradius 41.6709
rwrist -381.041
rhand -33.7688 24.9428
rfingers 7.12502
rthumb -6.95642 -4.92293
lclavicle -2.22639e-014 9.78021e-014
lhumerus -38.9465 22.4669 -9.34679
lradius 45.5751
lwrist 57.7365
lhand -29.1583 60.5274
lfingers 7.12502
lthumb -2.50457 269.508
rfemur -44.771 5.57185 -5.98664
rtibia 44.6224
rfoot -26.5215 -11.0186
rtoes -20.6754
lfemur -57.7884 2.65976 4.32935
ltibia 39.2276
lfoot -6.55077 28.7741
ltoes -42.0915
631
root 8.15132 14.4613 -15.1784 55.8738 43.8096 -349.642
lowerback 19.8942 0.91778 5.96083
upperback 4.82553 3.21628 8.11444
thorax -6.05583 1.59485 4.59946
lowerneck -3.21741 -10.009 -14.6947
upperneck 0.0350692 -13.0185 11.3934
head 2.24357 -6.43479 5.21289
rclavicle 7.31528e-014 -3.57812e-014
rhumerus 8.12179 -23.9971 341.947
rradius 41.4871
rwrist -382.222
rhand -34.3301 24.7576
rfingers 7.12502
rthumb -7.49819 -5.08954
lclavicle 7.31528e-014 -3.57812e-014
lhumerus -38.005 21.978 -10.3728
lradius 45.7777
lwrist 58.2432
lhand -30.0993 60.245
lfingers 7.12502
lthumb -3.41333 269.803
rfemur -47.7878 2.12189 -3.32123
rtibia 50.9852
rfoot -28.4706 -5.0642
rtoes -26.4663
lfemur -56.3807 4.19474 -0.0410378
ltibia 40.8816
lfoot -6.41449 26.9999
ltoes -43.2025
632
root 7.72941 14.213 -14.823 60.0989 47.7478 -345.709
lowerback 19.9839 0.840108 5.58717
upperback 4.77102 3.19533 9.02228
thorax -6.24215 1.61809 5.82922
lowerneck -2.41105 -10.2486 -15.274
upperneck -0.931218 -13.4029 12.1227
head 1.97064 -6.64463 5.55325
rclavicle 1.59028e-014 -3.73715e-014
rhumerus 10.6128 -25.366 339.525
rradius 41.1446
rwrist -382.498
rhand -34.8143 24.5694
rfingers 7.12502
rthumb -7.96553 -5.26053
lclavicle 1.59028e-014 -3.73715e-014
lhumerus -37.1906 21.5899 -11.6103
lradius 46.4242
lwrist 58.1572
lhand -30.4009 60.6431
lfingers 7.12502
lthumb -3.70464 269.409
rfemur -50.9857 -0.447974 -0.563524
rtibia 58.3168
rfoot -27.7135 -7.54746
rtoes -29.4755
lfemur -53.6717 5.01254 -3.14932
ltibia 41.6825
lfoot -5.75314 27.6843
ltoes -39.7377
633
root 7.33908 13.8626 -14.5101 67.5821 52.082 -338.614
lowerback 19.2938 0.0507809 6.2492
upperback 4.42452 2.38605 9.67327
thorax -6.20569 1.25102 6.38983
lowerneck -2.02275 -10.5344 -15.0837
upperneck -2.18214 -13.8 12.7517
head 1.63016 -6.85788 5.73816
rclavicle 4.77083e-014 -5.1684e-014
rhumerus 13.1094 -27.4702 336.06
rradius 40.6426
rwrist -382.814
rhand -34.9252 24.473
rfingers 7.12502
rthumb -8.07254 -5.35278
lclavicle 4.77083e-014 -5.1684e-014
lhumerus -36.4349 21.9262 -13.4672
lradius 47.373
lwrist 57.9937
lhand -29.7887 61.043
lfingers 7.12502
lthumb -3.11342 269
rfemur -54.0679 -3.72369 1.61306
rtibia 64.6674
rfoot -32.7793 -5.79074
rtoes -36.4043
lfemur -51.753 4.10694 -5.81403
ltibia 42.1262
lfoot -6.30576 27.4637
ltoes -37.6797
634
root 7.00223 13.5495 -14.1703 76.3359 55.7074 -330.746
lowerback 18.3455 -0.494461 7.43867
upperback 4.06973 1.93893 10.2307
thorax -6.04002 1.04804 6.44299
lowerneck -2.29633 -10.9769 -14.2065
upperneck -3.43142 -14.3261 13.0296
head 1.33998 -7.13023 5.67317
rclavicle -8.26944e-014 -1.46306e-013
rhumerus 15.2046 -30.0837 332.455
rradius 40.0551
rwrist -383.407
rhand -35.4133 25.0376
rfingers 7.12502
rthumb -8.54369 -4.76957
lclavicle -8.26944e-014 -1.46306e-013
lhumerus -35.2011 22.2234 -14.9521
lradius 48.0553
lwrist 58.4677
lhand -29.9522 60.8595
lfingers 7.12502
lthumb -3.27128 269.186
rfemur -56.9637 -5.80364 3.98048
rtibia 69.9066
rfoot -35.4787 -6.3534
rtoes -34.5097
lfemur -48.8854 3.18343 -7.66558
ltibia 41.5615
lfoot -4.41803 28.0287
ltoes -38.9396
635
root 6.69092 13.1847 -13.9198 90.1155 57.8418 -318.984
lowerback 15.7467 -1.17087 9.4361
upperback 2.93017 1.22812 10.5223
thorax -5.7972 0.687949 5.77827
lowerneck -2.16032 -11.5154 -13.9205
upperneck -4.72684 -15.0083 13.5167
head 1.04991 -7.49576 5.77179
rclavicle -4.77083e-014 3.49861e-014
rhumerus 16.4208 -33.0111 329.503
rradius 39.5619
rwrist -383.126
rhand -36.6426 25.5717
rfingers 7.12502
rthumb -9.72983 -4.18352
lclavicle -4.77083e-014 3.49861e-014
lhumerus -33.432 21.2802 -15.3078
lradius 48.9375
lwrist 59.2423
lhand -30.7912 60.6978
lfingers 7.12502
lthumb -4.08152 269.362
rfemur -61.4388 -10.8987 6.14481
rtibia 74.3899
rfoot -38.2503 -5.97272
rtoes -34.559
lfemur -47.2245 0.755999 -9.51557
ltibia 40.2506
lfoot -6.08615 27.5346
ltoes -42.4878
